<svg width="187" height="59" viewBox="0 0 187 59" fill="none" xmlns="http://www.w3.org/2000/svg">
<path d="M39.5329 12.873C39.2082 11.0228 38.9521 9.17503 38.7165 7.32492L38.6296 6.63201L38.5861 6.2844L38.5747 6.1975C38.5701 6.17005 38.5678 6.13576 38.5633 6.11746L38.5358 5.98709C38.4626 5.64406 38.3323 5.32389 38.1516 5.04718C37.9709 4.77046 37.7491 4.52806 37.493 4.34282C37.2368 4.15759 36.9578 4.02037 36.6719 3.94491C36.386 3.86715 36.0979 3.84198 35.8143 3.86942L34.5199 3.98834L33.1317 4.10956C32.6697 4.14843 32.2077 4.18731 31.7435 4.2239C29.8933 4.37255 28.0431 4.5029 26.1929 4.61724C25.2667 4.6767 24.3428 4.727 23.4165 4.7796L23.0689 4.79791L22.8951 4.80704L22.8516 4.80933H22.8311L22.8219 4.81162L22.7899 4.81849C22.7693 4.82306 22.7464 4.82765 22.7258 4.82994C22.7053 4.83222 22.6824 4.83449 22.6641 4.84364C22.6252 4.85965 22.5841 4.86652 22.5429 4.87795C22.3851 4.93055 22.2479 5.01972 22.1244 5.12035C22.0009 5.22326 21.9002 5.34677 21.8248 5.4817C21.7516 5.61662 21.7013 5.75611 21.6784 5.90019C21.6647 5.97108 21.6647 6.04428 21.6624 6.11517C21.6647 6.13347 21.667 6.15176 21.667 6.17006V6.1975V6.2112V6.21807V6.23636L21.6807 6.58397L21.7264 7.97214C21.7859 9.82224 21.8293 11.6723 21.8636 13.5247C21.8751 13.9867 21.8774 14.4509 21.8865 14.9129V14.9335V14.97L21.8842 15.0455L21.8797 15.1965L21.8659 15.496C21.8636 15.5966 21.8499 15.695 21.8362 15.7956C21.8225 15.8962 21.8088 15.9946 21.7927 16.0952C21.7676 16.2964 21.7127 16.4908 21.6647 16.6875C21.6372 16.7859 21.6189 16.8842 21.5823 16.9802C21.5503 17.0763 21.516 17.1723 21.4817 17.2661C20.9283 18.7915 19.8054 20.079 18.3783 20.8428C18.1976 20.9343 18.0169 21.0258 17.8317 21.1035C17.6441 21.1767 17.452 21.2476 17.2622 21.3139C17.0678 21.3688 16.8711 21.4214 16.6745 21.4694C16.4778 21.5129 16.2765 21.5403 16.0776 21.57C15.9769 21.5861 15.8786 21.5929 15.778 21.5998L15.4761 21.6158C15.2382 21.6272 15.1719 21.6226 15.0461 21.6226H14.3532L11.5768 21.6089C10.6505 21.5975 9.72657 21.5929 8.80034 21.5769L6.22748 21.5312C6.09026 21.5312 5.95761 21.5518 5.82725 21.5998C5.69689 21.6455 5.56882 21.7164 5.45447 21.8124C5.34012 21.9062 5.24407 22.0251 5.1686 22.1555C5.09541 22.2858 5.04511 22.4299 5.02224 22.5923L5.01537 22.622L5.01079 22.638C5.01079 22.6403 5.00852 22.6426 5.00852 22.6472V22.6678L5.00165 22.8415L4.98793 23.1892L4.96049 23.8844L4.90331 25.2725C4.85986 26.1987 4.81869 27.1226 4.76837 28.0488C4.72263 28.975 4.66546 29.9012 4.61057 30.8251C4.55111 31.7513 4.49393 32.6775 4.42532 33.6014C4.39331 34.0634 4.359 34.5276 4.3247 34.9896L4.23779 36.165C4.23093 36.4303 4.27439 36.7025 4.37044 36.9655C4.46649 37.2284 4.61514 37.4823 4.80954 37.7064C5.00165 37.9328 5.24407 38.1249 5.51622 38.2759L5.61914 38.333C5.65573 38.3491 5.69232 38.3628 5.72662 38.3788L5.83641 38.4268C5.873 38.4451 5.91188 38.4497 5.95076 38.4634L6.06738 38.5C6.08797 38.5068 6.10627 38.5137 6.12685 38.5183L6.18631 38.5297L6.30753 38.5549L6.36927 38.5686C6.3807 38.5709 6.38757 38.5732 6.40358 38.5754L6.44703 38.58C7.37326 38.6761 8.2995 38.779 9.22573 38.8865C11.0782 39.1083 12.9307 39.3461 14.7831 39.6571C12.9329 39.9842 11.0851 40.2403 9.23488 40.4782C8.31093 40.5948 7.3847 40.7068 6.46075 40.812L6.4173 40.8166C6.40358 40.8189 6.38071 40.8189 6.3647 40.8189L6.25264 40.8235L6.02622 40.8326L5.91187 40.8349C5.87299 40.8349 5.8364 40.8303 5.79752 40.8303L5.57111 40.8143C5.49564 40.8075 5.41788 40.8075 5.34241 40.7915L5.116 40.7549C5.04053 40.7411 4.96506 40.7297 4.88959 40.7137L4.66547 40.6542C4.06857 40.4919 3.49681 40.2106 2.9891 39.8355C2.4791 39.4582 2.03771 38.9825 1.6878 38.4337C1.33789 37.8848 1.09547 37.2582 0.969683 36.6087L0.944529 36.4875C0.935381 36.4463 0.93309 36.4052 0.926229 36.364L0.896497 36.117L0.882776 35.9935L0.871344 35.8815L0.857622 35.7077L0.798158 35.0147C0.756992 34.5528 0.7204 34.0885 0.683809 33.6266C0.608338 32.7004 0.542019 31.7765 0.473409 30.8503C0.41166 29.9241 0.34534 29.0002 0.290453 28.074C0.230991 27.1478 0.180672 26.2239 0.128071 25.2977L0.0571748 23.9095L0.0228643 23.2166L0.00685372 22.869L0 22.6952V22.6746V22.6403V22.5694L0.00228923 22.4253C0.0091502 21.6615 0.155512 20.8863 0.439099 20.1636C0.722686 19.4386 1.14807 18.7732 1.67408 18.2014C2.20009 17.6297 2.83358 17.1472 3.53797 16.7973C4.24236 16.4474 5.01766 16.2256 5.8021 16.1501L6.09712 16.1295C6.19088 16.1226 6.3121 16.1181 6.35098 16.1158L6.6986 16.1043L7.39156 16.0861L8.77977 16.0495C9.706 16.0266 10.6299 16.0106 11.5562 15.9923L14.3326 15.9534L15.0255 15.9488C15.1307 15.9488 15.2954 15.9488 15.2885 15.942C15.3045 15.9397 15.3183 15.9397 15.3343 15.9397C15.3503 15.9397 15.3663 15.942 15.38 15.9351C15.4075 15.926 15.4372 15.9283 15.4669 15.9214C15.4944 15.91 15.5218 15.9031 15.5515 15.8985C15.5767 15.8848 15.6041 15.8734 15.6316 15.8665C15.6567 15.8528 15.6819 15.8368 15.7094 15.8276C15.8123 15.7728 15.9083 15.6973 15.9884 15.6081C16.0684 15.5189 16.1279 15.416 16.1736 15.3085C16.1782 15.2948 16.185 15.2811 16.1919 15.2696C16.2011 15.2582 16.1988 15.2422 16.2033 15.2285C16.2079 15.1987 16.2285 15.1736 16.2262 15.1439C16.2285 15.1301 16.2308 15.1141 16.2331 15.1004C16.2376 15.0867 16.2422 15.0707 16.2399 15.0547C16.2399 15.0387 16.2399 15.0226 16.2422 15.0089L16.2445 14.986L16.2468 14.9746L16.2491 14.9678V14.9472C16.2514 14.4852 16.2514 14.021 16.2582 13.559C16.2765 11.7089 16.3017 9.85652 16.3451 8.00642L16.3771 6.61828L16.3863 6.27067L16.3932 6.13575L16.4023 5.98938L16.4229 5.69894C16.4663 5.31017 16.535 4.92367 16.647 4.54862C16.8643 3.79852 17.2211 3.08959 17.6922 2.4767C18.161 1.86153 18.7373 1.33783 19.3891 0.933046C20.0386 0.528264 20.7659 0.242403 21.516 0.105189C21.7036 0.070885 21.8911 0.0503107 22.0809 0.0274417C22.1747 0.0137203 22.2684 0.0114155 22.3622 0.00912862L22.6435 0.00226122L22.7853 0H22.8196H22.8425L22.8859 0.00226122L23.0597 0.00912862L23.4074 0.0251526C24.3336 0.0686037 25.2598 0.10976 26.1838 0.160072C28.0362 0.258409 29.8864 0.370465 31.7389 0.500818C32.2008 0.532835 32.6651 0.567125 33.1271 0.601428L34.5153 0.708934L35.2105 0.766106L35.5582 0.793548L35.7571 0.811833L35.9995 0.836986C36.6399 0.917027 37.2665 1.10913 37.8246 1.411C38.3826 1.71058 38.8789 2.10621 39.2791 2.57503C39.6816 3.04155 39.9903 3.57897 40.187 4.14613C40.386 4.71328 40.4752 5.3079 40.4523 5.88648L40.4432 6.10373C40.4432 6.1426 40.4386 6.16777 40.4363 6.1975L40.4272 6.2844L40.3883 6.63201L40.3082 7.32721C40.0795 9.16817 39.8417 11.0206 39.5329 12.873Z" fill="#EFEFEF"/>
<path d="M31.2015 26.3451C30.9476 26.48 30.6915 26.6081 30.4399 26.7476C30.186 26.8802 29.9391 27.022 29.6898 27.1615C29.1958 27.4428 28.7109 27.7355 28.2375 28.0442C27.7641 28.3484 27.3067 28.6731 26.8608 29.0047C26.6366 29.1694 26.4217 29.3455 26.2067 29.517C25.994 29.6954 25.7836 29.8692 25.58 30.0544C25.1707 30.418 24.7773 30.7954 24.4114 31.191C24.0478 31.5866 23.707 31.9869 23.4051 32.4122L23.2908 32.57C23.2519 32.6226 23.2199 32.6775 23.1833 32.7324C23.1124 32.8421 23.0392 32.9473 22.9706 33.0571L22.7716 33.3887C22.7373 33.4436 22.7076 33.4985 22.6778 33.5557L22.5864 33.7249L22.4949 33.8941C22.4652 33.9513 22.44 34.0108 22.4126 34.0679C22.3577 34.1846 22.2982 34.2966 22.2479 34.4133L22.097 34.7654C22.0466 34.8821 22.0055 35.0033 21.9597 35.1222C21.7859 35.6002 21.6304 36.085 21.5184 36.5881C21.404 37.0889 21.3011 37.592 21.2348 38.1112L21.2073 38.3033L21.1867 38.4977L21.1433 38.8887C21.1204 39.1586 21.0907 39.4284 21.0724 39.7006C21.0564 39.9704 21.0312 40.2403 21.0221 40.5101L21.0015 40.9149C20.9946 41.0498 20.9923 41.1848 20.9878 41.3197C20.9558 42.3968 20.9718 43.4762 21.0289 44.5717C21.0541 45.1182 21.0884 45.6717 21.125 46.2274L21.2439 47.9151C21.2828 48.4823 21.3262 49.054 21.3628 49.6303L21.4749 51.2952L21.5092 51.6977L21.5275 51.8852L21.5366 51.9744L21.5458 52.0567C21.5732 52.2785 21.6075 52.4592 21.6464 52.5987C21.6853 52.7382 21.7265 52.8343 21.7699 52.9006C21.7814 52.9166 21.7905 52.9349 21.8019 52.9486C21.8157 52.9623 21.8225 52.9783 21.8362 52.9921C21.8431 52.9989 21.8477 53.0058 21.8545 53.0126C21.8591 53.0195 21.8637 53.0263 21.8728 53.0355C21.8888 53.0515 21.9049 53.0721 21.9186 53.0881C22.0489 53.2253 22.2182 53.3374 22.3988 53.4083C22.5795 53.4791 22.7693 53.5089 22.9386 53.4929L24.5943 53.4403L26.3027 53.3946C28.5806 53.3328 30.8584 53.2871 33.1363 53.2505L34.8447 53.2276L35.7 53.2162L35.8029 53.2139C35.812 53.2116 35.8212 53.2093 35.8303 53.2093C35.8486 53.207 35.8669 53.2047 35.8875 53.2047C35.9081 53.2093 35.9241 53.1979 35.9424 53.1956C35.9607 53.191 35.979 53.1887 35.9973 53.1887C36.1368 53.1567 36.2672 53.0927 36.3838 53.0035C36.4982 52.9143 36.6033 52.7999 36.6605 52.6696C36.7223 52.5415 36.7612 52.4066 36.7657 52.2557C36.7657 52.2465 36.768 52.2374 36.7703 52.2282V52.1253V51.9126V51.485L36.768 50.6297L36.7795 47.213L36.8092 43.7964C36.8115 43.6432 36.8092 43.5563 36.8229 43.2681C36.8298 43.1469 36.8366 43.0234 36.8458 42.9022C36.8549 42.781 36.8778 42.6598 36.8961 42.5386C36.9144 42.4174 36.935 42.2962 36.9578 42.1773C36.9876 42.0584 37.0173 41.9395 37.0493 41.8205C37.1065 41.5804 37.1934 41.3517 37.2826 41.123C37.3055 41.0659 37.326 41.0087 37.3489 40.9515L37.4267 40.7846C37.4793 40.6748 37.5342 40.565 37.589 40.4552C37.6165 40.4004 37.6462 40.3478 37.6782 40.2952L37.772 40.1374C37.836 40.0344 37.9001 39.9293 37.9687 39.8286C38.0396 39.7303 38.1128 39.632 38.1882 39.5359C38.2637 39.4399 38.3346 39.3415 38.4192 39.2546C38.5839 39.0762 38.744 38.8933 38.9292 38.7355C39.645 38.0814 40.5072 37.5852 41.4358 37.3039C41.669 37.2422 41.9046 37.1781 42.1425 37.1369C42.2614 37.1187 42.3803 37.1004 42.5015 37.0844L42.6799 37.0615C42.7394 37.0546 42.7988 37.0546 42.8606 37.05C42.9795 37.0432 43.1007 37.0386 43.2196 37.0363L43.3088 37.034H43.3546H43.3843L43.4918 37.0363L43.9194 37.0455C45.0584 37.0684 46.1973 37.1027 47.3362 37.1324C48.4751 37.1644 49.6141 37.2033 50.7553 37.2422L51.6106 37.2742L52.0383 37.2902L52.2509 37.297L52.3036 37.2993H52.3287H52.3401H52.3836C52.6123 37.3131 52.8387 37.2833 53.0583 37.1987L53.0789 37.1918L53.0971 37.1804L53.136 37.1598C53.1635 37.1461 53.1909 37.1347 53.2184 37.1232C53.2435 37.1072 53.2687 37.0912 53.2938 37.0752C53.319 37.0592 53.3487 37.0478 53.3716 37.0272C53.4173 36.9883 53.4745 36.9586 53.5157 36.9128C53.5385 36.8923 53.5614 36.8717 53.5866 36.8534C53.6094 36.8328 53.6277 36.8076 53.6506 36.7848C53.8198 36.6018 53.9593 36.3823 54.0325 36.133C54.0394 36.101 54.0485 36.069 54.0577 36.037L54.0737 35.9889C54.0806 35.9729 54.0783 35.9569 54.0805 35.9386C54.0851 35.9043 54.0897 35.8723 54.0966 35.838L54.1011 35.8128C54.1034 35.8037 54.1057 35.8014 54.1057 35.7785L54.1103 35.6711L54.1537 34.8158L54.2475 33.1074C54.3756 30.8297 54.5219 28.5496 54.6889 26.2719C54.7735 25.133 54.8604 23.9918 54.9565 22.853L54.9748 22.6403L54.9793 22.5877C54.9816 22.5694 54.9816 22.5511 54.9839 22.5397L54.9885 22.4619L54.9999 22.3064L55.0022 22.2675L54.9999 22.2286L54.9976 22.1509C54.9953 22.0983 54.9931 22.0457 54.9931 21.9931L54.9725 21.8376C54.9633 21.785 54.9633 21.7301 54.9496 21.6798L54.913 21.5243L54.8947 21.4442C54.8879 21.4191 54.8764 21.3939 54.8696 21.3688L54.817 21.2155C54.8032 21.1629 54.7735 21.1149 54.7529 21.0646L54.6866 20.9137L54.6043 20.7696C54.5745 20.7216 54.5517 20.669 54.5174 20.6255L54.419 20.4883C54.403 20.4654 54.387 20.4403 54.3687 20.4197L54.3138 20.3557C54.0211 20.008 53.6437 19.7153 53.2092 19.5118C53.1543 19.4866 53.0971 19.4683 53.0423 19.4455C52.9851 19.4249 52.9302 19.3975 52.8707 19.3815L52.6946 19.3334C52.6352 19.3174 52.5757 19.2968 52.514 19.29L52.331 19.258L52.2372 19.2419L52.1297 19.2305L51.7021 19.1848C50.5632 19.0544 49.4219 18.9286 48.283 18.7686C49.4219 18.5993 50.5609 18.4621 51.6975 18.3226L52.1252 18.2723L52.2327 18.2609L52.3516 18.254L52.594 18.2403C52.6763 18.2334 52.7564 18.2403 52.8387 18.2426L53.0857 18.2563C53.168 18.2609 53.2481 18.2792 53.3304 18.2906C53.4128 18.3043 53.4951 18.3157 53.5751 18.3318C54.2269 18.4713 54.8535 18.7686 55.3979 19.1939L55.5008 19.274C55.5351 19.3014 55.5648 19.3311 55.5968 19.3609L55.7866 19.5392C55.853 19.5964 55.9056 19.665 55.965 19.7291L56.1388 19.9257L56.2944 20.1384C56.3447 20.2116 56.4018 20.2802 56.443 20.3579L56.5779 20.5889C56.6008 20.6278 56.6237 20.6667 56.6443 20.7056L56.7014 20.8268L56.8135 21.0715C56.8524 21.1538 56.8753 21.2407 56.9073 21.3253C56.937 21.4099 56.9667 21.4968 56.9942 21.5837L57.0559 21.849L57.0857 21.9817L57.0994 22.048L57.1085 22.1143L57.1428 22.3864L57.1588 22.5237L57.1703 22.6357L57.1909 22.8484C57.2961 23.9873 57.3967 25.1262 57.4905 26.265C57.678 28.5428 57.8472 30.8205 57.9959 33.0983L58.1057 34.8066L58.1583 35.6596L58.1651 35.7671C58.1674 35.7808 58.1651 35.8151 58.1674 35.8403V35.9226C58.1674 36.0324 58.1674 36.1399 58.1651 36.2496C58.1628 36.3045 58.1651 36.3594 58.1583 36.4143L58.1422 36.579C58.1308 36.6887 58.1194 36.7985 58.1034 36.906C57.8404 38.6554 56.7403 40.2723 55.16 41.1619C54.3733 41.6079 53.4722 41.88 52.5643 41.9394L52.3928 41.9509L52.3218 41.9555L52.2692 41.9578L52.0566 41.9669L51.6289 41.9875L50.7759 42.0263C49.6369 42.0744 48.498 42.1247 47.3591 42.1681C46.2202 42.2093 45.0812 42.2527 43.9423 42.2871L43.5146 42.3008L43.4072 42.3031H43.382L43.3729 42.3054L43.3568 42.3099C43.334 42.3145 43.3111 42.3168 43.2905 42.3191C43.2791 42.3214 43.2677 42.3191 43.2562 42.3214C43.2448 42.3259 43.2356 42.3282 43.2242 42.3328C43.2036 42.3397 43.183 42.3442 43.1602 42.3465C43.1556 42.3465 43.1487 42.3488 43.1442 42.3488L43.1304 42.3557C43.1213 42.3602 43.1099 42.3648 43.1007 42.3671C43.0801 42.3739 43.0595 42.3808 43.0389 42.3854C42.8834 42.4517 42.7439 42.5523 42.6273 42.6758C42.593 42.701 42.5747 42.7421 42.5472 42.7719C42.5312 42.7856 42.5244 42.8062 42.5129 42.8245C42.5015 42.8428 42.4901 42.8588 42.4786 42.8748C42.4695 42.8931 42.4626 42.9137 42.4535 42.9297C42.4489 42.9388 42.4443 42.948 42.4375 42.9548C42.4329 42.964 42.426 42.9708 42.4237 42.9823C42.4169 43.0029 42.41 43.0212 42.4032 43.0395C42.3986 43.0486 42.394 43.0577 42.3894 43.0669C42.3872 43.076 42.3849 43.0875 42.3826 43.0966C42.3734 43.1355 42.3551 43.1698 42.3551 43.211C42.3529 43.2293 42.3483 43.2498 42.3414 43.2681C42.3414 43.2887 42.3414 43.3093 42.3391 43.3276C42.3391 43.3482 42.33 43.3665 42.3323 43.3871C42.3346 43.4076 42.3368 43.4282 42.3346 43.4488C42.33 43.4442 42.3346 43.6432 42.3391 43.7735L42.4009 47.1902L42.4443 50.6068L42.4512 51.4621L42.4535 51.8898L42.4558 52.1024V52.2145L42.4512 52.3997C42.4283 53.3877 42.1813 54.3848 41.7262 55.2698C41.2757 56.1594 40.6147 56.9301 39.8257 57.5293C39.0367 58.1284 38.1082 58.5584 37.1294 58.7505C37.0081 58.771 36.8846 58.7916 36.7612 58.8099C36.6377 58.8259 36.5164 58.8488 36.393 58.8534C36.2695 58.8625 36.146 58.8671 36.0225 58.874L35.8372 58.8808H35.7274L34.8721 58.8785L33.1637 58.8717C30.8859 58.8557 28.608 58.8328 26.3279 58.7916L24.6195 58.7619L22.8585 58.7207C22.3737 58.7047 21.8957 58.6361 21.4337 58.5149C20.9717 58.3937 20.5281 58.2176 20.1096 57.9981C19.2725 57.559 18.5338 56.9369 17.9621 56.1754C17.8912 56.0794 17.8249 55.981 17.7562 55.8827C17.6899 55.7844 17.6236 55.6723 17.5618 55.5671C17.4978 55.4596 17.4429 55.3475 17.3858 55.2378C17.3309 55.1257 17.2828 55.0137 17.2325 54.9016C17.0427 54.4488 16.9238 53.9937 16.8506 53.5752C16.7774 53.1544 16.7454 52.7702 16.7294 52.4226L16.7248 52.2922L16.7202 52.1688C16.7179 52.0842 16.7157 52.0064 16.7157 51.9286L16.7134 51.4781L16.7408 49.7264L16.7774 48.0249C16.8003 46.8837 16.8323 45.7197 16.9009 44.5351C16.9352 43.9451 16.9855 43.3482 17.0427 42.7513C17.077 42.4517 17.1044 42.1544 17.1456 41.8548L17.2051 41.4066C17.2257 41.258 17.2508 41.1093 17.2714 40.9607C17.3583 40.3661 17.4727 39.7738 17.5939 39.186C17.6533 38.8933 17.7242 38.6006 17.7883 38.3101C17.8226 38.1615 17.8637 38.0106 17.9003 37.8619L17.9575 37.6378L18.0215 37.4137C18.1885 36.8168 18.3897 36.2199 18.6253 35.6368C18.8563 35.0536 19.133 34.4796 19.4418 33.9284C19.7482 33.375 20.1004 32.8444 20.4869 32.3459L20.6333 32.1584C20.6813 32.0966 20.7293 32.0349 20.7819 31.9754L21.0884 31.6187C21.1936 31.502 21.3011 31.39 21.4086 31.2756C21.4635 31.2184 21.5161 31.1613 21.5709 31.1064L21.7402 30.944C21.8545 30.8388 21.962 30.7268 22.0787 30.6261L22.4286 30.322C22.5452 30.2214 22.6687 30.1299 22.7876 30.0338C22.9088 29.9378 23.0278 29.844 23.1513 29.7571C23.6361 29.3958 24.1438 29.0711 24.6584 28.7692C25.173 28.4673 25.699 28.1929 26.2341 27.9482C26.7693 27.7012 27.3113 27.4748 27.8602 27.2781C28.9579 26.8802 30.0717 26.5692 31.2015 26.3451Z" fill="#EFEFEF"/>
<path d="M16.4389 33.5305C16.3726 33.3452 16.3086 33.1577 16.2491 32.9679C16.1896 32.7781 16.1393 32.586 16.0844 32.3939C16.0593 32.2978 16.0341 32.2018 16.0113 32.1034C15.9884 32.0074 15.9655 31.9091 15.9449 31.8107L15.8832 31.5157L15.8283 31.2184C15.6888 30.4226 15.6293 29.6061 15.6499 28.7691C15.6682 28.3529 15.6956 27.9298 15.7643 27.509C15.7917 27.2964 15.8352 27.086 15.8786 26.8733C15.8992 26.7658 15.9289 26.6629 15.9541 26.5577C15.9815 26.4525 16.0067 26.345 16.0387 26.2398C16.2857 25.3983 16.6562 24.5681 17.1547 23.7997L17.3514 23.5184C17.4178 23.4247 17.4818 23.3286 17.555 23.2417C17.6991 23.0633 17.8386 22.8758 17.9987 22.7088L18.2342 22.4527C18.3142 22.3704 18.3989 22.2904 18.4812 22.2103C18.5658 22.1303 18.6481 22.0479 18.7328 21.9702L18.9958 21.7461C19.7047 21.1538 20.4892 20.6621 21.3034 20.2687C21.404 20.2207 21.5069 20.1658 21.6098 20.1201L21.9186 19.9874L22.2296 19.8571C22.3325 19.8159 22.4354 19.7816 22.536 19.7427C22.7419 19.6696 22.9454 19.5895 23.1535 19.5232L23.4646 19.4203C23.5675 19.386 23.6772 19.3585 23.7824 19.3265L24.1026 19.2373L24.4205 19.1573C24.6332 19.1024 24.8436 19.0567 25.054 19.0109C25.4748 18.9194 25.8911 18.8486 26.3027 18.78C27.9448 18.5193 29.5022 18.3957 30.9087 18.1876C31.0825 18.1602 31.2563 18.1328 31.4256 18.1053L31.915 18.0093C31.9973 17.9933 32.0774 17.9818 32.1597 17.9612L32.4021 17.9041C32.5622 17.8629 32.7246 17.8309 32.8847 17.7851C33.2049 17.6914 33.525 17.6068 33.8406 17.4993L34.0785 17.4215L34.1974 17.3826L34.314 17.3392L34.7829 17.1631C37.2803 16.1889 39.629 14.6727 41.8405 12.8637L41.8748 12.8363C43.0824 11.8483 44.8617 12.029 45.8496 13.2365C46.2041 13.671 46.4077 14.1764 46.4671 14.6933L46.4877 14.8762L46.5037 15.0363L46.5334 15.345C46.5517 15.5486 46.57 15.7498 46.5838 15.9511C46.6158 16.3513 46.6364 16.7492 46.6501 17.1471C46.6798 17.943 46.6913 18.7365 46.6707 19.5323C46.6524 20.3282 46.6135 21.124 46.538 21.9245C46.5037 22.3224 46.4603 22.7226 46.4122 23.1228C46.3619 23.523 46.3002 23.9232 46.2361 24.3234C45.9708 25.9242 45.5683 27.5296 44.9646 29.1076C44.6513 29.8943 44.3013 30.6787 43.8645 31.4357C43.4369 32.1949 42.9292 32.929 42.3414 33.6151C42.0487 33.9581 41.7285 34.2851 41.3969 34.5962C41.2253 34.7471 41.0584 34.9026 40.8754 35.0444C40.7862 35.1153 40.6993 35.1908 40.6056 35.2594L40.3266 35.4629L40.2557 35.5132L40.1779 35.5658L40.0247 35.6687C39.9218 35.7373 39.8166 35.8105 39.7274 35.8539L39.1648 36.1627C38.9772 36.2702 38.792 36.3525 38.609 36.4417C38.4238 36.5286 38.2408 36.6201 38.0556 36.7024C36.5645 37.3587 35.0207 37.8367 33.4587 38.134C31.8944 38.4244 30.3118 38.5319 28.7544 38.4496C27.1992 38.3627 25.6669 38.0928 24.2307 37.5943C25.747 37.4754 27.2061 37.2467 28.6126 36.8899C30.0191 36.5377 31.3707 36.0712 32.6537 35.4972C33.9344 34.9163 35.1465 34.2348 36.2671 33.4641C36.4067 33.3681 36.5416 33.2652 36.6788 33.1668C36.8137 33.0662 36.9555 32.9702 37.0767 32.8673L37.4518 32.57C37.5227 32.5196 37.5593 32.4739 37.605 32.4305L37.6736 32.3641L37.7079 32.3321L37.7445 32.2933C37.9458 32.0897 38.1333 31.8724 38.314 31.6483C38.4901 31.4174 38.657 31.1795 38.8148 30.9303C39.4392 29.9286 39.9035 28.7669 40.2351 27.5251C40.5713 26.281 40.7817 24.9614 40.912 23.6144C40.944 23.276 40.9715 22.9398 40.9921 22.5968C41.0149 22.256 41.0332 21.9153 41.0447 21.5723C41.0584 21.2292 41.063 20.8862 41.0675 20.5409C41.0721 20.1955 41.0721 19.8502 41.0675 19.5049C41.0538 18.8142 41.0355 18.119 40.9921 17.4284C40.9715 17.0831 40.944 16.74 40.9189 16.3993C40.9052 16.2301 40.8891 16.0608 40.8731 15.8939L40.848 15.6469L40.8228 15.4342L45.4494 17.2637C44.1595 18.3203 42.7896 19.3105 41.3054 20.1681C40.9395 20.3899 40.5553 20.5843 40.1756 20.7901C39.9835 20.8885 39.7891 20.9822 39.5947 21.0783L39.3043 21.2201L39.007 21.355L38.4101 21.6157L37.8017 21.8558C37.6988 21.8947 37.6005 21.9382 37.4953 21.9725L37.1842 22.0822C36.9761 22.1531 36.7726 22.2309 36.5622 22.2926L35.9287 22.4802L35.7709 22.5259L35.6108 22.5671L35.2906 22.6471C35.0756 22.6997 34.8652 22.7592 34.6457 22.8003L33.9962 22.9284C33.7789 22.9695 33.5593 22.997 33.3398 23.0336L33.0127 23.0816C32.903 23.0999 32.7932 23.1068 32.6834 23.1205L32.0225 23.1845C31.8075 23.2005 31.5971 23.212 31.3844 23.2257C29.708 23.3057 28.1666 23.2485 26.7281 23.2783C26.5497 23.2829 26.369 23.2874 26.1952 23.2943C26.0214 23.3035 25.843 23.308 25.6715 23.3217C25.5 23.3332 25.3262 23.3423 25.1592 23.3583L24.9054 23.3812L24.6584 23.4109C24.4937 23.4292 24.3245 23.4544 24.1575 23.4818C23.9883 23.5047 23.8236 23.5413 23.6544 23.5687C23.572 23.5847 23.4851 23.5984 23.4051 23.6144L23.1672 23.6694L22.9271 23.722C22.8471 23.7402 22.7716 23.7654 22.6938 23.786C21.4406 24.1267 20.3039 24.6939 19.3617 25.572L19.1902 25.7413C19.133 25.7984 19.0712 25.8533 19.0209 25.9151C18.9134 26.0363 18.8014 26.1575 18.7008 26.2878L18.5452 26.4822L18.4012 26.6858L18.328 26.7887C18.3051 26.823 18.2822 26.8596 18.2594 26.8962L18.1221 27.1111C17.7677 27.6966 17.4772 28.3461 17.2394 29.0367C16.7728 30.4249 16.5441 31.9548 16.4389 33.5305Z" fill="#68C721"/>
<path d="M67.1704 48.1369C66.7832 47.9609 66.4839 47.7145 66.2595 47.3977C66.0395 47.0809 65.9207 46.7288 65.9075 46.3416H66.7215C66.7568 46.7156 66.924 47.0456 67.2188 47.3273C67.5136 47.6089 67.9405 47.7497 68.5081 47.7497C69.0274 47.7497 69.4411 47.6177 69.7491 47.3493C70.0527 47.0809 70.2067 46.742 70.2067 46.3284C70.2067 45.9984 70.1231 45.73 69.9515 45.5276C69.7843 45.3251 69.5731 45.1755 69.3222 45.0743C69.0714 44.9731 68.7282 44.8675 68.2881 44.7487C67.7733 44.6079 67.3684 44.4715 67.0648 44.3395C66.7656 44.2075 66.5059 44.0007 66.2947 43.7234C66.0835 43.4462 65.9735 43.0678 65.9735 42.5881C65.9735 42.1921 66.0747 41.8357 66.2815 41.5233C66.4883 41.2109 66.7787 40.9688 67.1528 40.7928C67.5268 40.6168 67.9581 40.5288 68.4421 40.5288C69.155 40.5288 69.7271 40.7048 70.1671 41.0524C70.6028 41.4 70.8536 41.8533 70.9196 42.4033H70.0835C70.0307 42.0865 69.8591 41.8049 69.5643 41.5585C69.2694 41.312 68.8734 41.1889 68.3761 41.1889C67.9141 41.1889 67.5268 41.312 67.2188 41.5585C66.9108 41.8049 66.7568 42.1393 66.7568 42.5662C66.7568 42.8874 66.8404 43.1514 67.012 43.3494C67.1792 43.5474 67.3904 43.697 67.6456 43.8026C67.9009 43.9038 68.2441 44.0138 68.6754 44.1326C69.1726 44.2734 69.5775 44.4099 69.8855 44.5463C70.1935 44.6827 70.4532 44.8895 70.6688 45.1667C70.88 45.4439 70.99 45.8224 70.99 46.2888C70.99 46.6496 70.8932 46.9884 70.704 47.3141C70.5148 47.6353 70.2287 47.8993 69.8547 48.0973C69.4807 48.2953 69.0318 48.3966 68.5126 48.3966C68.0021 48.401 67.5577 48.3129 67.1704 48.1369Z" fill="#EFEFEF"/>
<path d="M73.2475 40.6211V48.3216H72.4774V40.6211H73.2475Z" fill="#EFEFEF"/>
<path d="M82.5237 40.7227V48.3264H81.7536V42.254L79.0429 48.3264H78.4797L75.769 42.2804V48.3264H74.9989V40.7227H75.813L78.7525 47.31L81.6921 40.7227H82.5237Z" fill="#EFEFEF"/>
<path d="M88.548 44.4362C88.1124 44.841 87.4655 45.0434 86.5986 45.0434H85.0452V48.326H84.2751V40.6255H86.5986C87.4567 40.6255 88.108 40.8279 88.5436 41.2327C88.9793 41.6376 89.1993 42.1744 89.1993 42.8433C89.1993 43.4989 88.9836 44.0313 88.548 44.4362ZM88.4072 42.8389C88.4072 42.324 88.262 41.9368 87.9759 41.6728C87.6899 41.4087 87.2323 41.2767 86.5986 41.2767H85.0452V44.3834H86.5986C87.8043 44.379 88.4072 43.8641 88.4072 42.8389Z" fill="#EFEFEF"/>
<path d="M91.2587 47.6968H94.0222V48.326H90.4843V40.6255H91.2543V47.6968H91.2587Z" fill="#EFEFEF"/>
<path d="M95.8968 40.6211V48.3216H95.1267V40.6211H95.8968Z" fill="#EFEFEF"/>
<path d="M101.815 40.6211V41.2592H98.4226V44.1325H101.287V44.7706H98.4226V48.3172H97.6525V40.6167H101.815V40.6211Z" fill="#EFEFEF"/>
<path d="M103.853 40.6211V48.3216H103.083V40.6211H103.853Z" fill="#EFEFEF"/>
<path d="M106.374 41.2504V44.1238H109.292V44.7618H106.374V47.6792H109.626V48.3173H105.604V40.6035H109.626V41.2416H106.374V41.2504Z" fill="#EFEFEF"/>
<path d="M115.62 41.0876C116.231 41.3957 116.694 41.84 117.019 42.4209C117.34 43.0017 117.503 43.6926 117.503 44.4935C117.503 45.2855 117.34 45.9719 117.019 46.5484C116.698 47.1248 116.231 47.5649 115.62 47.8685C115.008 48.1721 114.278 48.3261 113.428 48.3261H111.149V40.6256H113.428C114.278 40.6212 115.008 40.7752 115.62 41.0876ZM115.875 46.8432C116.438 46.28 116.72 45.4967 116.72 44.4891C116.72 43.477 116.438 42.6849 115.875 42.1129C115.312 41.5452 114.498 41.2593 113.424 41.2593H111.915V47.6837H113.424C114.498 47.6837 115.316 47.4021 115.875 46.8432Z" fill="#EFEFEF"/>
<path d="M127.66 40.6211V48.3216H126.889V44.7178H122.713V48.3216H121.943V40.6211H122.713V44.0797H126.889V40.6211H127.66Z" fill="#EFEFEF"/>
<path d="M130.194 41.2504V44.1238H133.112V44.7618H130.194V47.6792H133.446V48.3173H129.424V40.6035H133.446V41.2416H130.194V41.2504Z" fill="#EFEFEF"/>
<path d="M139.426 46.4959H135.924L135.25 48.3264H134.436L137.244 40.7227H138.115L140.914 48.3264H140.1L139.426 46.4959ZM139.193 45.8578L137.671 41.6952L136.152 45.8578H139.193Z" fill="#EFEFEF"/>
<path d="M142.916 47.6968H145.68V48.326H142.142V40.6255H142.912V47.6968H142.916Z" fill="#EFEFEF"/>
<path d="M151.29 40.6211V41.2592H149.152V48.3216H148.381V41.2592H146.234V40.6211H151.29Z" fill="#EFEFEF"/>
<path d="M158.23 40.6211V48.3216H157.46V44.7178H153.284V48.3216H152.513V40.6211H153.284V44.0797H157.46V40.6211H158.23Z" fill="#EFEFEF"/>
<path d="M160.139 42.4341C160.47 41.8357 160.923 41.3693 161.495 41.0348C162.067 40.7004 162.705 40.5332 163.413 40.5332C164.272 40.5332 165.011 40.7356 165.622 41.1449C166.234 41.5541 166.683 42.1261 166.96 42.8697H166.058C165.838 42.3505 165.504 41.9413 165.05 41.6464C164.597 41.3516 164.052 41.2064 163.413 41.2064C162.846 41.2064 162.34 41.3384 161.886 41.6024C161.433 41.8665 161.081 42.2449 160.822 42.7422C160.566 43.2394 160.434 43.8114 160.434 44.4671C160.434 45.1227 160.562 45.6948 160.822 46.1876C161.077 46.6804 161.433 47.0588 161.886 47.3229C162.34 47.5869 162.846 47.7189 163.413 47.7189C164.052 47.7189 164.597 47.5737 165.05 47.2833C165.504 46.9928 165.838 46.5924 166.058 46.0776H166.96C166.683 46.8124 166.234 47.3801 165.618 47.7849C165.002 48.1897 164.267 48.3922 163.413 48.3922C162.709 48.3922 162.071 48.2249 161.495 47.8905C160.923 47.5561 160.47 47.0896 160.139 46.4956C159.809 45.9016 159.642 45.2239 159.642 44.4671C159.642 43.7102 159.805 43.0326 160.139 42.4341Z" fill="#EFEFEF"/>
<path d="M172.949 46.4959H169.446L168.773 48.3264H167.959L170.767 40.7227H171.638L174.437 48.3264H173.623L172.949 46.4959ZM172.72 45.8578L171.202 41.6952L169.684 45.8578H172.72Z" fill="#EFEFEF"/>
<path d="M179.77 48.3216L177.865 45.105H176.443V48.3216H175.673V40.6211H177.988C178.846 40.6211 179.497 40.8279 179.942 41.2371C180.386 41.6464 180.606 42.1876 180.606 42.8564C180.606 43.4153 180.448 43.8906 180.127 44.2822C179.805 44.6738 179.334 44.929 178.71 45.0478L180.694 48.3216H179.77ZM176.443 44.4802H177.997C178.6 44.4802 179.053 44.335 179.356 44.0401C179.66 43.7453 179.814 43.3537 179.814 42.8608C179.814 42.3548 179.669 41.9632 179.374 41.686C179.079 41.4088 178.617 41.2723 177.988 41.2723H176.443V44.4802Z" fill="#EFEFEF"/>
<path d="M182.908 41.2504V44.1238H185.825V44.7618H182.908V47.6792H186.159V48.3173H182.137V40.6035H186.159V41.2416H182.908V41.2504Z" fill="#EFEFEF"/>
<path d="M72.1035 33.1498L66.4664 33.1806C66.3652 33.1806 66.3124 33.1278 66.3124 33.0266L66.3741 11.4166C66.3741 11.333 66.4136 11.2934 66.4973 11.2934L72.3807 11.2626C73.5468 11.2318 74.6029 11.5002 75.5446 12.0635C76.4952 12.6267 77.2564 13.388 77.8241 14.3429C78.3918 15.3021 78.6778 16.3582 78.6778 17.5155V26.5493C78.6778 27.7594 78.3874 28.8639 77.8021 29.8672C77.208 30.8616 76.4203 31.6537 75.4346 32.2389C74.4533 32.8242 73.34 33.1278 72.1035 33.1498ZM72.3807 15.0249L70.1849 15.0557L70.1541 29.3083H72.1035C72.8824 29.3083 73.538 29.0355 74.0705 28.4943C74.603 27.953 74.867 27.3018 74.867 26.5449V17.4847C74.867 16.8202 74.6206 16.2394 74.1277 15.7421C73.6393 15.2405 73.054 15.0029 72.3807 15.0249Z" fill="#EFEFEF"/>
<path d="M90.7483 33.4837C89.6306 33.4837 88.6009 33.1977 87.6592 32.6213C86.7263 32.0492 85.9782 31.2835 85.4105 30.3243C84.8429 29.365 84.5568 28.3134 84.5568 27.1693L84.5876 17.2026C84.5876 16.0365 84.8693 14.9848 85.4325 14.0519C85.987 13.1103 86.735 12.3534 87.6768 11.7858C88.6185 11.2181 89.6438 10.9321 90.7483 10.9321C91.8968 10.9321 92.9221 11.2138 93.8374 11.777C94.7571 12.3402 95.5008 13.0971 96.0553 14.0431C96.6141 14.9892 96.8914 16.0409 96.8914 17.1982L96.9222 27.1649C96.9222 28.3134 96.6449 29.3606 96.0905 30.3155C95.5272 31.2791 94.7791 32.0448 93.8462 32.6213C92.9177 33.1977 91.8836 33.4837 90.7483 33.4837ZM90.7483 29.6907C91.382 29.6907 91.9364 29.431 92.4073 28.9162C92.8781 28.4014 93.1157 27.8161 93.1157 27.1737L93.0849 17.207C93.0849 16.5117 92.8649 15.9221 92.4249 15.4424C91.9848 14.9628 91.426 14.7208 90.7527 14.7208C90.1058 14.7208 89.5558 14.9584 89.0937 15.4292C88.6317 15.9001 88.4028 16.4941 88.4028 17.2114V27.1781C88.4028 27.8645 88.6317 28.4541 89.0937 28.9514C89.547 29.4442 90.1014 29.6907 90.7483 29.6907Z" fill="#EFEFEF"/>
<path d="M108.852 33.4837C107.717 33.4837 106.674 33.1977 105.732 32.6213C104.799 32.0492 104.06 31.2792 103.514 30.3111C102.964 29.343 102.691 28.2649 102.691 27.0768L102.722 17.2642C102.722 16.0981 102.986 15.042 103.519 14.1003C104.051 13.1499 104.786 12.3842 105.723 11.8034C106.66 11.2269 107.703 10.9365 108.847 10.9365C110.014 10.9365 111.052 11.2181 111.967 11.7813C112.887 12.3446 113.622 13.1059 114.172 14.0607C114.718 15.02 114.995 16.0849 114.995 17.2642V18.7075C114.995 18.7911 114.955 18.8307 114.872 18.8307H111.338C111.255 18.8307 111.215 18.7911 111.215 18.7075V17.2642C111.215 16.5689 110.991 15.9704 110.537 15.4688C110.088 14.9672 109.525 14.7164 108.847 14.7164C108.099 14.7164 107.527 14.9716 107.127 15.4864C106.726 15.9969 106.528 16.5909 106.528 17.2686V27.0812C106.528 27.8513 106.753 28.4761 107.206 28.9646C107.655 29.453 108.205 29.6951 108.847 29.6951C109.525 29.6951 110.088 29.4266 110.537 28.8898C110.986 28.3529 111.215 27.7501 111.215 27.0856V25.6248C111.215 25.5412 111.255 25.5015 111.338 25.5015H114.903C114.986 25.5015 115.026 25.5412 115.026 25.6248V27.0856C115.026 28.2649 114.749 29.3386 114.194 30.3111C113.631 31.2748 112.887 32.0448 111.967 32.6213C111.048 33.1977 110.009 33.4837 108.852 33.4837Z" fill="#EFEFEF"/>
<path d="M127.787 33.1801H124.24C124.148 33.1801 124.104 33.1273 124.104 33.0261V15.086H120.016C119.915 15.086 119.862 15.0332 119.862 14.932L119.893 11.4162C119.893 11.3326 119.932 11.293 120.016 11.293H131.968C132.082 11.293 132.135 11.3326 132.135 11.4162V14.932C132.135 15.0332 132.095 15.086 132.012 15.086H127.88L127.91 33.0261C127.91 33.1273 127.871 33.1801 127.787 33.1801Z" fill="#EFEFEF"/>
<path d="M142.626 33.4837C141.508 33.4837 140.478 33.1977 139.537 32.6213C138.604 32.0492 137.856 31.2835 137.288 30.3243C136.72 29.365 136.434 28.3134 136.434 27.1693L136.465 17.2026C136.465 16.0365 136.747 14.9848 137.31 14.0519C137.864 13.1103 138.612 12.3534 139.554 11.7858C140.496 11.2181 141.521 10.9321 142.626 10.9321C143.774 10.9321 144.799 11.2138 145.715 11.777C146.634 12.3402 147.378 13.0971 147.933 14.0431C148.491 14.9892 148.769 16.0409 148.769 17.1982L148.8 27.1649C148.8 28.3134 148.522 29.3606 147.968 30.3155C147.405 31.2791 146.656 32.0448 145.724 32.6213C144.795 33.1977 143.761 33.4837 142.626 33.4837ZM142.626 29.6907C143.259 29.6907 143.814 29.431 144.285 28.9162C144.755 28.4014 144.993 27.8161 144.993 27.1737L144.962 17.207C144.962 16.5117 144.742 15.9221 144.302 15.4424C143.862 14.9628 143.303 14.7208 142.63 14.7208C141.983 14.7208 141.433 14.9584 140.971 15.4292C140.509 15.9001 140.28 16.4941 140.28 17.2114V27.1781C140.28 27.8645 140.509 28.4541 140.971 28.9514C141.424 29.4442 141.979 29.6907 142.626 29.6907Z" fill="#EFEFEF"/>
<path d="M158.626 33.1801H155.061C154.978 33.1801 154.938 33.1273 154.938 33.0261L155 11.4162C155 11.3326 155.039 11.293 155.123 11.293H158.965C159.048 11.293 159.119 11.3326 159.18 11.4162L162.054 15.5613L164.91 11.4162C164.971 11.3326 165.046 11.293 165.139 11.293H168.993C169.086 11.293 169.13 11.3326 169.13 11.4162L169.191 33.0261C169.191 33.1273 169.152 33.1801 169.068 33.1801H165.504C165.42 33.1801 165.381 33.1273 165.381 33.0261L165.35 16.9738L162.049 21.7657L158.775 16.9738L158.745 33.0261C158.749 33.1273 158.709 33.1801 158.626 33.1801Z" fill="#EFEFEF"/>
<path d="M185.887 33.1801H175.717C175.634 33.1801 175.594 33.1273 175.594 33.0261L175.625 11.4162C175.625 11.3326 175.665 11.293 175.748 11.293H185.856C185.94 11.293 185.979 11.3458 185.979 11.447V14.9629C185.979 15.0465 185.94 15.086 185.856 15.086H179.405V20.0012H185.856C185.94 20.0012 185.979 20.0408 185.979 20.1244L186.01 23.6887C186.01 23.7723 185.97 23.8119 185.887 23.8119H179.405V29.3123H185.887C185.97 29.3123 186.01 29.3651 186.01 29.4663V33.0613C186.01 33.1362 185.97 33.1801 185.887 33.1801Z" fill="#EFEFEF"/>
</svg>
